<svg width="40" height="41" viewBox="0 0 40 41" fill="none" xmlns="http://www.w3.org/2000/svg">
<path d="M35.0001 13.8333C35.8841 13.8333 36.732 14.1845 37.3571 14.8096C37.9822 15.4348 38.3334 16.2826 38.3334 17.1667V23.8333C38.3334 24.7174 37.9822 25.5652 37.3571 26.1904C36.732 26.8155 35.8841 27.1667 35.0001 27.1667H33.2301C32.8238 30.3888 31.2555 33.352 28.8197 35.5C26.3838 37.648 23.2478 38.8333 20.0001 38.8333V35.5C22.6522 35.5 25.1958 34.4464 27.0711 32.5711C28.9465 30.6957 30.0001 28.1522 30.0001 25.5V15.5C30.0001 12.8478 28.9465 10.3043 27.0711 8.42893C25.1958 6.55357 22.6522 5.5 20.0001 5.5C17.3479 5.5 14.8044 6.55357 12.929 8.42893C11.0536 10.3043 10.0001 12.8478 10.0001 15.5V27.1667H5.00008C4.11603 27.1667 3.26818 26.8155 2.64306 26.1904C2.01794 25.5652 1.66675 24.7174 1.66675 23.8333V17.1667C1.66675 16.2826 2.01794 15.4348 2.64306 14.8096C3.26818 14.1845 4.11603 13.8333 5.00008 13.8333H6.77008C7.1768 10.6115 8.74521 7.64878 11.181 5.50112C13.6169 3.35346 16.7527 2.16846 20.0001 2.16846C23.2475 2.16846 26.3833 3.35346 28.8191 5.50112C31.2549 7.64878 32.8234 10.6115 33.2301 13.8333H35.0001ZM12.9334 26.8083L14.7001 23.9817C16.2885 24.9767 18.1257 25.503 20.0001 25.5C21.8745 25.503 23.7116 24.9767 25.3001 23.9817L27.0667 26.8083C24.9488 28.1352 22.4993 28.8372 20.0001 28.8333C17.5008 28.8372 15.0513 28.1352 12.9334 26.8083Z" fill="#F9995D"/>
</svg>
