<svg width="40" height="41" viewBox="0 0 40 41" fill="none" xmlns="http://www.w3.org/2000/svg">
<path d="M15.0001 25.5C10.5501 25.5 1.66675 27.7333 1.66675 32.1667V35.5H28.3334V32.1667C28.3334 27.7333 19.4501 25.5 15.0001 25.5ZM36.8334 11.9C36.8501 11.7167 36.8668 11.5333 36.8668 11.3333C36.8668 11.1333 36.8501 10.95 36.8167 10.7667L38.0501 9.8C38.1667 9.71667 38.1834 9.55 38.1168 9.43334L36.9501 7.41667C36.8834 7.28334 36.7167 7.25 36.6001 7.28334L35.1668 7.86667C34.8667 7.63334 34.5334 7.45 34.1834 7.3L33.9667 5.75C33.9542 5.67968 33.9172 5.61604 33.8623 5.57031C33.8074 5.52457 33.7382 5.49968 33.6668 5.5H31.3334C31.1834 5.5 31.0667 5.6 31.0501 5.75L30.8334 7.3C30.4834 7.45 30.1501 7.65 29.8501 7.86667L28.4001 7.28334C28.2668 7.23334 28.1167 7.28334 28.0501 7.41667L26.8834 9.43334C26.8167 9.56667 26.8334 9.71667 26.9501 9.8L28.1834 10.7667C28.1171 11.1415 28.1171 11.5251 28.1834 11.9L26.9501 12.8667C26.8334 12.95 26.8167 13.1167 26.8834 13.2333L28.0501 15.25C28.1167 15.3833 28.2834 15.4167 28.4001 15.3833L29.8501 14.8C30.1501 15.0333 30.4834 15.2167 30.8334 15.3667L31.0501 16.9167C31.0667 17.0667 31.1834 17.1667 31.3334 17.1667H33.6668C33.8167 17.1667 33.9334 17.0667 33.9501 16.9167L34.1667 15.3667C34.5168 15.2167 34.8501 15.0167 35.1501 14.8L36.6001 15.3833C36.7334 15.4333 36.8834 15.3833 36.9501 15.25L38.1168 13.2333C38.1834 13.1 38.1667 12.95 38.0501 12.8667L36.8334 11.9ZM32.5001 13.4167C31.9475 13.4167 31.4176 13.1972 31.0269 12.8065C30.6362 12.4158 30.4167 11.8859 30.4167 11.3333C30.4167 10.7808 30.6362 10.2509 31.0269 9.8602C31.4176 9.4695 31.9475 9.25 32.5001 9.25C33.0526 9.25 33.5825 9.4695 33.9732 9.8602C34.3639 10.2509 34.5834 10.7808 34.5834 11.3333C34.5834 11.8859 34.3639 12.4158 33.9732 12.8065C33.5825 13.1972 33.0526 13.4167 32.5001 13.4167ZM33.2001 19.9667L32.3667 18.5167C32.3167 18.4167 32.2001 18.3833 32.1168 18.4167L31.0834 18.8333C30.8667 18.6667 30.6334 18.5333 30.3834 18.4333L30.2334 17.3333C30.2163 17.285 30.1848 17.243 30.143 17.2132C30.1013 17.1834 30.0514 17.1672 30.0001 17.1667H28.3334C28.2334 17.1667 28.1501 17.2333 28.1334 17.35L27.9834 18.45C27.7334 18.55 27.5001 18.7 27.2834 18.85L26.2501 18.4333C26.1501 18.4 26.0501 18.4333 26.0001 18.5333L25.1667 19.9833C25.1168 20.0833 25.1334 20.1833 25.2167 20.25L26.1001 20.9333C26.0834 21.0667 26.0667 21.2 26.0667 21.3333C26.0667 21.4667 26.0834 21.6167 26.1001 21.7333L25.2167 22.4167C25.1334 22.4833 25.1168 22.6 25.1667 22.6833L26.0001 24.1333C26.0501 24.2333 26.1667 24.2667 26.2501 24.2333L27.2834 23.8167C27.5001 23.9833 27.7334 24.1167 27.9834 24.2167L28.1334 25.3167C28.1501 25.4333 28.2334 25.5 28.3334 25.5H30.0001C30.1001 25.5 30.2001 25.4333 30.2001 25.3167L30.3501 24.2167C30.6001 24.1167 30.8334 23.9667 31.0501 23.8167L32.0834 24.2333C32.1834 24.2667 32.2834 24.2333 32.3334 24.1333L33.1667 22.6833C33.2167 22.5833 33.2001 22.4833 33.1168 22.4167L32.2501 21.7333C32.2668 21.6 32.2834 21.4667 32.2834 21.3333C32.2834 21.2 32.2668 21.05 32.2501 20.9333L33.1334 20.25C33.2167 20.1833 33.2334 20.0667 33.2001 19.9667ZM29.1667 22.7167C28.4001 22.7167 27.7834 22.0833 27.7834 21.3333C27.7834 20.5667 28.4167 19.95 29.1667 19.95C29.9167 19.95 30.5501 20.5833 30.5501 21.3333C30.5501 22.1 29.9334 22.7167 29.1667 22.7167ZM7.90008 15.5H22.1168C22.5667 15.5 22.9334 15.1333 22.9334 14.6833V14.65C22.9334 14.4334 22.8474 14.2257 22.6942 14.0725C22.5411 13.9194 22.3333 13.8333 22.1168 13.8333H21.6667C21.6667 11.3667 20.3167 9.25 18.3334 8.08334V9.66667C18.3334 10.1333 17.9667 10.5 17.5001 10.5C17.0334 10.5 16.6667 10.1333 16.6667 9.66667V7.4C16.1334 7.26667 15.5834 7.16667 15.0001 7.16667C14.4167 7.16667 13.8667 7.26667 13.3334 7.4V9.66667C13.3334 10.1333 12.9667 10.5 12.5001 10.5C12.0334 10.5 11.6667 10.1333 11.6667 9.66667V8.08334C9.68342 9.25 8.33342 11.3667 8.33342 13.8333H7.90008C7.79284 13.8333 7.68664 13.8545 7.58756 13.8955C7.48847 13.9365 7.39845 13.9967 7.32261 14.0725C7.24678 14.1484 7.18662 14.2384 7.14558 14.3375C7.10454 14.4366 7.08342 14.5428 7.08342 14.65V14.7C7.08342 15.1333 7.45008 15.5 7.90008 15.5ZM15.0001 22.1667C18.1001 22.1667 20.6834 20.0333 21.4334 17.1667H8.56675C9.31675 20.0333 11.9001 22.1667 15.0001 22.1667Z" fill="#F9995D"/>
</svg>
