<svg width="58" height="22" viewBox="0 0 58 22" fill="none" xmlns="http://www.w3.org/2000/svg">
<path d="M0.42 21L5.01 1.2H12.45C14.81 1.2 16.65 1.73 17.97 2.79C19.31 3.83 19.98 5.28 19.98 7.14C19.98 8.58 19.64 9.86 18.96 10.98C18.28 12.08 17.3 12.95 16.02 13.59C14.74 14.21 13.22 14.52 11.46 14.52H4.68L5.55 10.65H11.31C12.09 10.65 12.74 10.51 13.26 10.23C13.8 9.93 14.2 9.55 14.46 9.09C14.74 8.61 14.88 8.09 14.88 7.53C14.88 6.77 14.64 6.17 14.16 5.73C13.68 5.29 12.92 5.07 11.88 5.07H9.27L5.58 21H0.42ZM40.7302 1.2L39.8002 5.19H33.4102L29.7502 21H24.5902L28.2502 5.19H21.8002L22.7302 1.2H40.7302ZM48.1924 21.33C46.7924 21.33 45.4724 21.15 44.2324 20.79C42.9924 20.41 41.8724 19.86 40.8724 19.14C39.8924 18.42 39.0524 17.51 38.3524 16.41L41.3824 13.44C41.8624 14.28 42.4624 15 43.1824 15.6C43.9224 16.18 44.7224 16.62 45.5824 16.92C46.4424 17.2 47.3024 17.34 48.1624 17.34C48.7824 17.34 49.2824 17.25 49.6624 17.07C50.0624 16.89 50.3624 16.65 50.5624 16.35C50.7624 16.05 50.8624 15.73 50.8624 15.39C50.8624 14.95 50.7024 14.61 50.3824 14.37C50.0624 14.11 49.5824 13.88 48.9424 13.68L45.9724 12.72C45.0724 12.42 44.2524 12.03 43.5124 11.55C42.7924 11.05 42.2224 10.44 41.8024 9.72C41.3824 9 41.1724 8.17 41.1724 7.23C41.1724 5.89 41.5124 4.75 42.1924 3.81C42.8924 2.87 43.8424 2.15 45.0424 1.65C46.2624 1.15 47.6524 0.899999 49.2124 0.899999C51.2724 0.899999 53.0124 1.27 54.4324 2.01C55.8524 2.73 57.0224 3.75 57.9424 5.07L54.7924 7.95C54.3724 7.25 53.8624 6.68 53.2624 6.24C52.6824 5.78 52.0424 5.44 51.3424 5.22C50.6424 5 49.9324 4.89 49.2124 4.89C48.6124 4.89 48.1124 4.97 47.7124 5.13C47.3124 5.29 47.0124 5.51 46.8124 5.79C46.6324 6.05 46.5424 6.36 46.5424 6.72C46.5424 7.12 46.7324 7.49 47.1124 7.83C47.5124 8.15 48.0324 8.41 48.6724 8.61L51.6424 9.57C53.1424 10.05 54.2824 10.71 55.0624 11.55C55.8424 12.37 56.2324 13.45 56.2324 14.79C56.2324 16.15 55.8724 17.32 55.1524 18.3C54.4524 19.28 53.4924 20.03 52.2724 20.55C51.0524 21.07 49.6924 21.33 48.1924 21.33Z" fill="#389BD4"/>
</svg>
