<svg width="36" height="39" viewBox="0 0 36 39" fill="none" xmlns="http://www.w3.org/2000/svg">
<path d="M32.6849 27.7226L24.3599 18.7038L26.7149 16.1526L21.0899 10.0588L18.7349 12.6101L10.4099 3.59131L3.31494 11.2776L11.6399 20.2963L4.49994 28.0313V34.1251H10.1249L17.2649 26.3901L25.5899 35.4088L32.6849 27.7226ZM13.7699 17.9888L7.55994 11.2776L10.4099 8.19006L12.3149 10.2538L10.5299 12.1876L12.6449 14.4788L14.4299 12.5451L16.6049 14.9013L13.7699 17.9888ZM19.3949 24.0826L22.2449 20.9951L24.4199 23.3513L22.6349 25.2851L24.7499 27.5763L26.5349 25.6426L28.4399 27.7063L25.5899 30.7938L19.3949 24.0826ZM22.6994 8.32493L26.5064 4.19906L32.1284 10.2896L28.3214 14.4154L22.6994 8.32493Z" fill="#14171F"/>
</svg>
