<svg width="36" height="39" viewBox="0 0 36 39" fill="none" xmlns="http://www.w3.org/2000/svg">
<path d="M31.5 13.0002C32.2956 13.0002 33.0587 13.3426 33.6213 13.9521C34.1839 14.5616 34.5 15.3882 34.5 16.2502V22.7502C34.5 23.6122 34.1839 24.4388 33.6213 25.0483C33.0587 25.6578 32.2956 26.0002 31.5 26.0002H29.907C29.5413 29.1418 28.1299 32.0309 25.9376 34.1252C23.7453 36.2195 20.9229 37.3752 18 37.3752V34.1252C20.3869 34.1252 22.6761 33.098 24.364 31.2695C26.0518 29.441 27 26.9611 27 24.3752V14.6252C27 12.0393 26.0518 9.55939 24.364 7.73091C22.6761 5.90243 20.3869 4.8752 18 4.8752C15.6131 4.8752 13.3239 5.90243 11.636 7.73091C9.94821 9.55939 9 12.0393 9 14.6252V26.0002H4.5C3.70435 26.0002 2.94129 25.6578 2.37868 25.0483C1.81607 24.4388 1.5 23.6122 1.5 22.7502V16.2502C1.5 15.3882 1.81607 14.5616 2.37868 13.9521C2.94129 13.3426 3.70435 13.0002 4.5 13.0002H6.093C6.45905 9.85891 7.87062 6.97027 10.0629 4.8763C12.2551 2.78233 15.0773 1.62695 18 1.62695C20.9227 1.62695 23.7449 2.78233 25.9371 4.8763C28.1294 6.97027 29.541 9.85891 29.907 13.0002H31.5ZM11.64 25.6508L13.23 22.8948C14.6596 23.865 16.313 24.3782 18 24.3752C19.687 24.3782 21.3404 23.865 22.77 22.8948L24.36 25.6508C22.4539 26.9446 20.2493 27.6289 18 27.6252C15.7507 27.6289 13.5461 26.9446 11.64 25.6508Z" fill="#14171F"/>
</svg>
